<?xml version="1.0" standalone="no"?>
<!DOCTYPE svg PUBLIC "-//W3C//DTD SVG 20010904//EN"
 "http://www.w3.org/TR/2001/REC-SVG-20010904/DTD/svg10.dtd">
<svg version="1.0" xmlns="http://www.w3.org/2000/svg"
 width="883.000000pt" height="636.000000pt" viewBox="0 0 883.000000 636.000000"
 preserveAspectRatio="xMidYMid meet">

<g transform="translate(0.000000,636.000000) scale(0.100000,-0.100000)"
fill="#000000" stroke="none">
<path d="M2401 4651 c-13 -8 -16 -173 -19 -1193 -4 -982 -7 -1188 -18 -1210
-8 -15 -14 -36 -14 -46 0 -26 -55 -134 -85 -166 -14 -15 -25 -30 -26 -34 -2
-20 -120 -97 -173 -114 -110 -34 -260 -26 -398 23 -84 29 -75 38 -202 -205
-32 -60 -75 -135 -97 -167 -21 -32 -39 -61 -39 -65 0 -4 -9 -27 -21 -50 -34
-71 -7 -96 151 -142 155 -45 308 -64 475 -58 83 3 179 10 215 16 82 15 202 55
249 84 20 12 54 30 76 41 22 11 42 23 45 26 3 3 20 14 39 24 47 24 198 171
227 222 14 23 31 46 39 53 18 15 129 244 148 305 36 118 47 163 53 205 3 25
12 70 20 100 20 77 31 423 15 473 -11 32 -17 37 -42 37 -29 0 -29 0 -15 28 8
15 25 37 39 49 24 20 25 26 26 138 0 64 3 120 6 125 3 5 0 30 -6 57 -6 26 -10
107 -10 179 0 92 -4 137 -13 149 -10 15 -10 25 1 59 9 24 12 56 9 78 -4 21 -6
249 -7 507 0 409 -2 470 -16 475 -25 10 -617 6 -632 -3z m225 -409 c-24 -46
-20 -80 13 -113 35 -35 60 -36 112 -7 21 12 42 19 45 15 12 -12 -6 -56 -34
-82 -26 -25 -27 -28 -27 -135 0 -61 -4 -110 -8 -110 -4 0 -19 7 -32 16 -23 15
-25 22 -25 103 l0 86 -55 59 c-53 57 -55 60 -55 116 0 42 5 61 18 72 43 38 72
26 48 -20z m151 -1674 c-3 -8 -6 -5 -6 6 -1 11 2 17 5 13 3 -3 4 -12 1 -19z"/>
<path d="M3661 4650 c-19 -12 -30 -281 -30 -729 l-1 -483 -25 -30 -25 -29 21
-22 c25 -28 33 -58 25 -103 -8 -41 -33 -74 -58 -74 -11 0 -15 -5 -12 -15 4 -8
12 -15 19 -15 26 0 45 -48 45 -112 0 -53 -4 -66 -26 -89 -25 -26 -25 -28 -6
-38 41 -22 45 -55 39 -354 -3 -187 -9 -294 -17 -317 -53 -148 -66 -172 -120
-229 -95 -99 -160 -128 -301 -138 -99 -7 -124 -21 -145 -85 -4 -10 -10 -18
-14 -18 -4 0 -11 -11 -14 -26 -4 -14 -30 -63 -59 -109 -49 -78 -88 -130 -194
-258 -61 -72 -58 -81 35 -111 142 -45 394 -59 563 -30 138 23 305 79 317 107
2 4 9 7 15 7 28 0 158 99 249 188 54 53 98 101 98 106 0 4 13 25 29 45 31 39
111 185 111 202 0 6 11 34 24 62 32 70 56 150 56 185 0 15 7 53 16 83 15 49
16 153 10 1179 -7 1136 -9 1236 -17 1244 -6 7 -599 12 -608 6z"/>
<path d="M5437 4632 c-10 -10 -17 -28 -17 -40 0 -11 -4 -23 -9 -27 -5 -3 -12
-18 -16 -35 -3 -16 -17 -51 -29 -77 -13 -26 -29 -66 -36 -88 -7 -22 -19 -51
-26 -65 -20 -38 -94 -222 -94 -234 0 -6 -6 -23 -14 -37 -7 -14 -16 -37 -20
-52 -3 -15 -11 -27 -16 -27 -6 0 -10 -8 -10 -18 0 -10 -7 -27 -15 -38 -8 -10
-15 -26 -15 -35 0 -10 -13 -44 -30 -77 -16 -34 -30 -68 -30 -78 0 -9 -20 -58
-44 -108 -61 -127 -96 -204 -96 -211 0 -5 -35 -83 -81 -179 -11 -22 -19 -46
-19 -54 0 -8 -6 -26 -13 -40 -8 -15 -21 -42 -30 -60 -9 -19 -17 -40 -17 -49 0
-8 -6 -27 -14 -41 -33 -63 -54 -132 -63 -206 -2 -22 -17 -56 -31 -75 -34 -45
-64 -101 -90 -166 -11 -27 -32 -76 -47 -108 -19 -40 -26 -66 -22 -87 6 -30 -2
-53 -39 -105 -35 -48 -72 -129 -139 -305 -83 -214 -131 -333 -161 -397 -13
-28 -24 -55 -24 -58 0 -4 -14 -36 -31 -73 -18 -39 -29 -78 -27 -96 l3 -31 326
-3 326 -2 13 32 c7 18 26 61 42 95 15 34 28 69 28 77 0 7 14 40 30 71 17 31
30 63 30 70 0 7 14 43 30 80 17 37 30 71 30 76 0 6 14 40 31 77 34 76 40 89
64 152 10 25 21 54 26 65 5 11 18 45 29 75 20 54 62 147 81 182 5 10 9 22 9
28 0 5 13 38 29 72 27 58 36 97 33 141 -2 15 -13 17 -89 17 -109 0 -101 17 12
26 98 8 127 22 149 71 9 21 21 46 26 55 6 10 10 36 10 59 0 31 8 51 30 79 17
21 30 42 30 46 0 5 11 32 25 59 13 28 25 56 25 63 0 7 11 37 24 65 13 29 26
63 30 77 4 14 17 45 28 70 11 25 31 75 43 111 12 36 27 74 33 85 14 28 29 61
53 124 11 30 24 59 28 65 5 5 11 22 15 36 4 18 14 28 31 32 32 6 42 -9 80
-113 15 -41 33 -88 40 -105 7 -16 17 -41 23 -55 5 -14 24 -58 41 -99 17 -40
31 -79 31 -87 0 -7 14 -42 30 -77 17 -36 30 -72 30 -81 0 -8 4 -17 9 -20 5 -3
12 -18 16 -33 3 -15 17 -50 29 -78 12 -27 31 -75 41 -105 10 -30 25 -66 32
-80 18 -34 16 -54 -5 -73 -16 -15 -49 -17 -260 -17 l-241 0 -20 -26 c-12 -15
-21 -33 -21 -40 0 -7 -13 -42 -30 -77 -16 -36 -30 -70 -30 -76 0 -11 -19 -53
-95 -216 -64 -135 -73 -164 -55 -175 9 -6 223 -10 512 -10 521 0 542 -2 553
-44 4 -12 13 -39 22 -61 28 -73 31 -80 48 -130 10 -27 23 -59 30 -70 6 -11 22
-48 34 -83 11 -34 30 -82 40 -105 11 -23 28 -67 39 -97 31 -85 70 -169 86
-185 12 -13 66 -15 329 -15 174 0 322 3 331 6 20 8 20 31 1 68 -8 15 -15 34
-15 41 0 8 -13 42 -28 77 -16 35 -35 79 -41 98 -24 67 -72 185 -96 235 -13 28
-27 61 -30 75 -4 14 -18 48 -30 75 -12 28 -35 84 -50 125 -15 41 -33 86 -40
100 -7 14 -21 45 -30 70 -10 25 -21 54 -26 65 -5 11 -18 45 -29 75 -11 30 -31
78 -44 105 -40 83 -56 122 -56 138 0 9 -4 18 -9 21 -4 3 -23 45 -41 93 -18 48
-36 93 -41 98 -4 6 -15 33 -24 60 -10 28 -30 78 -46 112 -16 34 -29 68 -29 74
0 7 -14 42 -31 78 -17 36 -44 101 -60 143 -15 42 -32 85 -37 95 -5 10 -14 32
-20 48 -24 69 -99 251 -113 275 -27 48 -82 165 -104 225 -15 39 -30 75 -34 80
-4 6 -16 33 -26 60 -23 64 -43 113 -61 147 -8 14 -14 32 -14 38 0 7 -18 50
-40 96 -22 46 -40 88 -40 93 0 11 -24 70 -46 113 -8 14 -14 38 -14 52 0 15 -8
30 -19 36 -12 6 -127 10 -304 10 -262 0 -285 -1 -300 -18z m-267 -1260 c0 -4
-7 -18 -16 -31 -23 -32 -20 -98 5 -125 27 -29 27 -31 -11 -46 -18 -7 -39 -20
-45 -28 -20 -25 -26 -7 -9 27 10 19 16 56 16 105 0 66 3 77 22 90 25 17 38 20
38 8z m-187 -349 c-31 -42 -124 -133 -135 -133 -17 0 10 37 74 101 75 75 105
91 61 32z m152 -202 l40 -7 -59 -7 c-43 -6 -68 -15 -91 -35 -65 -55 -77 -63
-82 -58 -7 6 15 41 49 77 35 38 68 44 143 30z m-286 -206 c-14 -14 -26 -19
-28 -13 -2 6 4 17 15 25 30 22 38 15 13 -12z m-39 -37 c0 -14 -30 -48 -42 -48
-13 0 -9 22 9 42 18 21 33 23 33 6z m-76 -80 c-41 -47 -79 -78 -83 -67 -2 7 4
16 12 21 9 5 29 22 44 38 32 34 55 41 27 8z m92 -174 c-53 -54 -66 -63 -66
-46 0 32 111 134 128 118 2 -2 -26 -34 -62 -72z m-186 -425 c0 -18 53 -87 75
-98 19 -9 19 -10 -3 -10 -34 -1 -60 15 -77 49 -17 33 -20 70 -5 70 6 0 10 -5
10 -11z"/>
</g>
</svg>
